<svg width="555" height="555" viewBox="0 0 555 555" fill="none" xmlns="http://www.w3.org/2000/svg"><g clip-path="url(#clip0_8689_4698)"><path d="M277.605 61c-132.771 0-240.5 109.097-240.5 243.632 0 74.559 33.116 141.361 85.272 186.034 1.863 1.654 3.933 2.783 5.795 4.334 8.61 5.577 20.015 11 43.032 15 27.801 5.676 65.522 9 106.401 9 70.784 0 127.771-8.5 150.288-23.5 1.966-1.551 3.641-2.845 5.504-4.5 52.156-44.673 84.708-111.809 84.708-186.368C518.105 170.097 410.481 61 277.605 61z" fill="url(#paint0_linear_8689_4698)"/><path fill-rule="evenodd" clip-rule="evenodd" d="M427.01 492.109c1.714-1.686 2.232-3.053 2.232-4.109s-.518-2.423-2.232-4.109c-1.72-1.692-4.417-3.468-8.159-5.249-7.47-3.555-18.471-6.836-32.306-9.621-27.621-5.56-65.914-9.021-108.303-9.021-42.389 0-80.681 3.461-108.302 9.021-13.835 2.785-24.837 6.066-32.307 9.621-3.742 1.781-6.438 3.557-8.158 5.249-1.714 1.686-1.733 2.053-1.733 3.109s.019 1.814 1.733 3.5c1.72 1.692 4.416 2.719 8.158 4.5 7.47 3.555 18.472 7.215 32.307 10 27.621 5.56 65.913 9 108.302 9 42.389 0 80.682-2.94 108.303-8.5 13.835-2.785 24.836-5.445 32.306-9 3.742-1.781 6.439-2.699 8.159-4.391zM278.242 519c85.052 0 154-13.879 154-31 0-17.121-68.948-31-154-31s-154 13.879-154 31c0 17.121 68.948 31 154 31z" fill="url(#paint1_linear_8689_4698)"/><path d="M379.299 271.3c-1.8-6.3-5.1-12-9.8-16.6-4.2-4-9.5-7.2-17.3-7.2h-157.8c-7.8 0-13.2 3.1-17.3 7.2-4.7 4.5-8 10.3-9.8 16.6l-13.6 47s1.8.2 3.2.2h7c3.3 0 6.5 1.8 7.9 5.1 2.6 6.7 13.2 41.8 36.7 41.8h129.6c23.5 0 34.1-35.1 36.7-41.8 1.4-3.4 4.6-5.1 7.9-5.1h7c1.4 0 3.2-.2 3.2-.2l-13.6-47z" fill="url(#paint2_linear_8689_4698)"/><path d="M416.3 318.3h-23.4c.5.8.1 3.5-.4 5.2L381 366.4c-1.7 5.4-5.1 16.6-16.6 16.6H182.2c-11.5 0-14.9-11.2-16.6-16.6l-11.4-42.9c-.5-1.7-.9-4.4-.4-5.2h-23.4c-12.2 0-15.2 9.8-13.4 17.4l15.6 73.2c3.8 14.3 12.1 14 23.4 14h234.6c11.2 0 19.5.3 23.4-14l15.6-73.2c1.8-7.6-1.1-17.4-13.3-17.4z" fill="url(#paint3_linear_8689_4698)"/><path d="M392.801 318.3s-1.8.2-3.2.2h-7c-3.3 0-6.5 1.8-7.9 5.1-2.6 6.7-13.2 41.8-36.7 41.8h-129.6c-23.5 0-34.1-35.1-36.7-41.8-1.4-3.4-4.6-5.1-7.9-5.1h-7c-1.4 0-3.2-.2-3.2-.2-.5.8-.1 3.5.4 5.2l11.4 42.9c1.7 5.4 5.1 16.6 16.6 16.6h182.2c11.5 0 14.9-11.2 16.6-16.6l11.4-42.9c.8-1.7 1.1-4.3.6-5.2z" fill="url(#paint4_linear_8689_4698)"/><path d="M432.405 54.27c-11.2-6.4-23.8-5.5-28.1 2-.6 1.1-1 2.2-1.2 3.4v.2c-.2.9-.2 1.8-.2 2.7l-4.1 52.599 42.1-31.6c1.6-1 3-2.3 4-4 4.2-7.5-1.3-18.8-12.5-25.3z" fill="url(#paint5_linear_8689_4698)"/><path d="M152.405 57.57c-8.2 2.5-13.4 9.1-11.7 14.6.2.8.6 1.5 1.1 2.1l.1.1c.4.5.8.9 1.2 1.3l23.8 25.699 3.6-34.7c.2-1.3.2-2.5-.2-3.7-1.7-5.5-9.7-8-17.9-5.4z" fill="url(#paint6_linear_8689_4698)"/><path opacity=".26" d="M274.201 459.028c-77.722 0-140.709 11.32-140.709 18.575 0 .398.225.797.563 1.195 1.687 1.037 3.374 2.073 5.174 3.03 17.096 6.935 71.085 15.146 135.084 15.146 63.887 0 117.876-8.131 135.085-15.146 1.799-.957 3.486-1.993 5.174-3.03.337-.398.562-.797.562-1.195-.113-7.255-63.212-18.575-140.933-18.575z" fill="url(#paint7_radial_8689_4698)"/><path opacity=".2" d="M197.167 481.123c-27.341 0-49.499 6.821-49.499 11.192 0 .24.079.48.198.72.593.625 1.187 1.249 1.82 1.826 6.014 4.179 25.006 9.126 47.52 9.126 22.474 0 41.467-4.899 47.521-9.126.633-.577 1.226-1.201 1.82-1.826.118-.24.198-.48.198-.72-.04-4.371-22.237-11.192-49.578-11.192z" fill="url(#paint8_radial_8689_4698)"/><path d="M180.273 419.1l-24.3 61.3c-2.1 5.6 2.8 6.5 5.7 1.6l33-62.9h-14.4z" fill="url(#paint9_linear_8689_4698)"/><path d="M366.472 423l24.171 57.504c2.089 5.253-2.785 6.097-5.67 1.501L352.148 423h14.324z" fill="url(#paint10_linear_8689_4698)"/><path d="M257.591 222.733l-23.409 6.131c-8.026 2.118-14.38 8.249-16.721 16.164l-16.052 52.169s-6.911 14.156 27.088 37.454l5.842-14.64 73.77 4.077 4.215 10.563c33.999-23.298 27.087-37.454 27.087-37.454l-16.051-52.169c-2.341-7.915-8.695-14.046-16.721-16.164l-23.409-6.131h-25.639z" fill="url(#paint11_linear_8689_4698)"/><path d="M326.368 426.504s-6.019 16.721-5.796 20.065c.223 3.344-14.826-12.373-14.826-12.373s5.016-4.348 6.911-12.485c1.895-8.138 13.711 4.793 13.711 4.793z" fill="url(#paint12_linear_8689_4698)"/><path d="M322.131 444.228c0 8.249.669 28.091 3.01 33.665 1.338 3.121-6.8 5.35-14.157 0-3.567-2.676-5.127-10.033-6.8-15.941-1.783-6.131-4.793-11.704-6.131-13.599-5.016-7.804 8.807-16.275 8.807-16.275 1.895 5.016 4.013 7.914 9.475 9.698 1.56.557 5.796.78 5.796 2.452z" fill="url(#paint13_linear_8689_4698)"/><path d="M237.08 265.093l-6.353 16.609h4.904l1.449-16.609z" fill="url(#paint14_linear_8689_4698)"/><path d="M304.188 265.093l6.465 16.609h-4.905l-1.56-16.609z" fill="url(#paint15_linear_8689_4698)"/><path d="M193.828 335.097s42.694-6.911 46.595-10.144c3.902-3.233 100.659 6.019 100.659 6.019l-8.917 35.56-60.53 1.115-74.797-21.737-3.01-10.813z" fill="url(#paint16_linear_8689_4698)"/><path d="M302.627 362.296l32.549 3.79-3.678 12.485-31.658-1.561 2.787-14.714z" fill="url(#paint17_linear_8689_4698)"/><path opacity=".62" d="M274.312 395.069c101.027 0 182.925-6.937 182.925-15.495 0-8.557-81.898-15.494-182.925-15.494-101.027 0-182.925 6.937-182.925 15.494 0 8.558 81.898 15.495 182.925 15.495z" fill="url(#paint18_radial_8689_4698)"/><path d="M345.766 366.309s14.157-4.125 16.943-2.453c2.787 1.673 7.58 10.144 6.577 13.934-.446 1.673-21.737 0-21.737 0l-1.783-11.481z" fill="url(#paint19_linear_8689_4698)"/><path d="M315.446 340.113h-90.181l-7.58-58.077c-.334-2.229 1.449-4.236 3.679-4.236h97.872c2.229 0 4.013 2.007 3.79 4.236l-7.58 58.077z" fill="url(#paint20_linear_8689_4698)"/><path d="M315.225 342.343h-89.624l-7.58-58.523c-.223-2.007 1.338-3.79 3.344-3.79h97.65c2.229 0 4.013 2.006 3.678 4.236l-7.468 58.077z" fill="url(#paint21_linear_8689_4698)"/><path d="M313.995 346.021h-87.171a1.237 1.237 0 01-1.226-1.226v-2.453h89.623v2.453c0 .669-.557 1.226-1.226 1.226z" fill="url(#paint22_linear_8689_4698)"/><path d="M322.023 280.922c-.668-.781-1.56-1.227-2.563-1.227h-98.319c-1.003 0-1.895.446-2.563 1.227-.669.78-.781 1.895-.669 2.898v-.112c.223-1.337.557-1.783 1.114-2.341.558-.668 1.45-.891 2.23-.891h98.207c.78 0 1.56.223 2.229.891.557.558.892 1.115 1.115 2.341v.112c.111-1.003-.112-2.23-.781-2.898z" fill="url(#paint23_linear_8689_4698)"/><path d="M315.225 342.343h-89.624l-7.58-58.523c-.223-2.007 1.338-3.79 3.344-3.79h97.65c2.229 0 4.013 2.006 3.678 4.236l-7.468 58.077z" fill="url(#paint24_linear_8689_4698)"/><path d="M270.411 317.707a6.466 6.466 0 10-.001-12.931 6.466 6.466 0 00.001 12.931z" fill="url(#paint25_linear_8689_4698)"/><path d="M269.074 348.474c15.383-8.807 59.303-23.521 70.673-23.521 14.603 0 24.747 13.154 18.951 32.996-7.358 25.192-22.964 58.299-29.318 70.896-1.003 2.006-3.232 2.675-5.685 2.452-3.009-.111-5.796-1.449-7.914-3.455l-6.02-5.017s8.138-52.168 18.728-66.883l-4.459 8.695-20.177-2.341.112-1.672-34.891-12.15z" fill="url(#paint26_linear_8689_4698)"/><path d="M328.71 356.165l-12.596 6.02-.223 1.56 8.36 1.003 4.459-8.583z" fill="url(#paint27_linear_8689_4698)"/><path d="M304.187 360.736s-40.687-14.715-49.271-16.61c-8.583-1.895-57.407-14.491-67.774-7.803-10.367 6.689-25.304 31.435 38.234 38.124 63.539 6.688 77.362 3.678 77.362 3.678l1.449-17.389z" fill="url(#paint28_linear_8689_4698)"/><path d="M278.213 235.553a17.478 17.478 0 01-15.94 0c-3.79-1.895-6.02-5.908-5.685-10.033l1.226-14.937h24.97l1.226 14.937c.334 4.236-2.007 8.138-5.797 10.033z" fill="url(#paint29_linear_8689_4698)"/><path d="M200.384 374.472s-20.251 15.468-49.152 15.061l-3.256 62.177s-3.46 17.096 12.822 28.595l16.282 11.397 24.219-9.769 2.544-1.221s10.279-5.8 13.942-14.145c3.663-8.345 24.321-70.115 24.321-70.115l-3.46-3.154c-2.238-.509-6.004 1.221-9.464 0-8.649-2.951-20.047-8.548-28.798-18.826z" fill="url(#paint30_linear_8689_4698)"/><path d="M196.628 374.472s-19.16 14.635-46.506 14.25l-3.081 58.831s-3.274 16.176 12.132 27.056c15.406 10.88 15.406 10.784 15.406 10.784l22.916-9.243 2.407-1.156s9.725-5.488 13.191-13.384c3.467-7.895 23.013-66.341 23.013-66.341s-23.879-2.599-39.478-20.797z" fill="url(#paint31_linear_8689_4698)"/><path d="M196.007 378.949c11.906 11.703 25.135 17.198 33.582 19.233-7.531 22.388-18.928 56.682-21.371 62.381-2.238 5.19-8.751 9.769-11.295 11.295l-2.137 1.018-21.167 8.548-12.924-9.158c-12.822-8.956-10.583-22.083-10.481-22.592l.101-.407v-.407l2.952-56.682c20.149-1.119 35.515-8.853 42.74-13.229zm.916-7.632s-19.64 15.061-47.93 15.061h-1.323l-3.257 62.177s-3.46 17.096 12.822 28.595l16.282 11.398 24.22-9.77 2.544-1.221s10.278-5.8 13.941-14.145c3.664-8.344 24.322-70.114 24.322-70.114s-25.136-2.748-41.621-21.981z" fill="url(#paint32_linear_8689_4698)"/><path d="M164.223 441.317c-1.342-3.828-1.371-8.511.038-13.643 3.636-12.733 15.382-22.96 26.324-22.779 10.942.182 16.944 10.59 13.311 23.425-1.412 5.031-4.174 9.695-7.632 13.464l-4.45-18.193-1.398 1.773-.519 5.004-2.849-13.15-6.347 7.928-.517 5.105-1.545-6.876-14.416 17.942z" fill="#fff"/><g clip-path="url(#clip1_8689_4698)"><path d="M292.481 193.639c-.223-.446-.669-.669-1.115-.78-1.783-.558-3.009-.223-3.344-3.79 0-.781-.223-1.784-.446-2.676v-2.898c0-3.902-1.672-7.357-4.236-9.921-1.895-4.682-3.79-8.137-3.79-8.137L270.075 168l-9.475-2.563s-1.783 3.455-3.79 8.137c-2.564 2.564-4.124 6.131-4.236 9.921v2.898c-.111.892-.334 1.895-.446 2.676-.223 3.455-1.449 3.121-3.344 3.79-.446.111-.78.445-1.115.78-3.009 4.459 2.118 13.265 3.902 11.927.446-.334.669-.446 1.115-.446.111 1.673 4.236 18.17 17.278 18.17 13.042 0 17.166-16.497 17.278-18.17.446 0 .669 0 1.115.446 2.006 1.338 7.134-7.468 4.124-11.927z" fill="url(#paint33_linear_8689_4698)"/><path d="M288.359 201.776c.892-4.793 1.115-8.472 1.115-8.472s1.115-1.226 2.452-.557c0 0 9.587-38.57-15.829-37.009-5.35.334-10.366 1.338-12.15 1.561-.557 0-1.003.111-1.449.223-.557 0-1.115.111-1.784.223-12.707 1.449-15.94.557-17.612-.223 0 0-.558 4.904 2.675 8.026 0 0-1.226 1.449-4.124-.781 0 0-3.79 7.915 5.239 11.482-.558 8.583 1.783 16.721 1.895 16.721 1.338-.669 2.452.557 2.452.557l.446 7.914c1.895 0 3.344-1.672 3.01-3.455-.669-4.125-.78-8.695-.892-11.816-.223-4.793.557-6.911 1.895-8.026 12.708 1.115 19.731-2.007 23.521-2.453.557 0 1.114.223 1.56.446 3.456 1.784 6.8 3.233 6.354 12.374-.111 2.898-.334 6.577-.892 9.921-.446 1.337.558 2.898 2.118 3.344z" fill="url(#paint34_linear_8689_4698)"/></g><path fill-rule="evenodd" clip-rule="evenodd" d="M124.462 488.276l.022.019c.775.688 1.617 1.289 2.6 1.972l.256.178c.838.58 1.789 1.239 2.709 1.991 8.184 5.28 19.178 10.526 41.698 14.439l.046.008.045.01c27.534 5.621 65.031 8.936 105.767 8.936 35.279 0 67.053-2.119 92.76-6.088 25.756-3.977 44.998-9.751 55.665-16.811l.568-.448c1.693-1.332 3.119-2.455 4.692-3.853l.022-.019.022-.019c51.46-44.076 83.6-110.336 83.6-183.959 0-132.823-106.244-240.46-237.329-240.46-130.981 0-237.328 107.638-237.328 240.46 0 73.602 32.687 139.535 84.163 183.625l.022.019zm303.431 7.224c-22.517 15-79.504 23.5-150.288 23.5-40.879 0-78.6-3.324-106.401-9-23.017-4-34.422-9.423-43.032-15-.853-.711-1.75-1.333-2.65-1.957-1.065-.739-2.135-1.481-3.145-2.377-52.156-44.673-85.272-111.475-85.272-186.034C37.105 170.097 144.834 61 277.606 61c132.876 0 240.5 109.097 240.5 243.632 0 74.559-32.552 141.695-84.708 186.368-1.649 1.464-3.15 2.646-4.836 3.973l-.668.527z" fill="url(#paint35_radial_8689_4698)" fill-opacity=".4"/><path d="M304.905 98.023c19.7-.2 54.6 0 107.7 40 30.8 23.2 65 85.3 60.6 114.4-.6 4.1-.7 8.2-4.6 9.5-3.2 1.1-6.8-.2-8.6-3.1-14.6-23.3-70.3-113.2-161.2-141.2-14.6-4.6-15.8-19.4 6.1-19.6z" fill="#fff"/><g filter="url(#filter0_f_8689_4698)"><path d="M425.195 420.024c-5.698-2.698-8.465-8.676-8.132-16.37.331-7.677 3.755-16.931 10.236-25.919 6.482-8.987 14.75-15.948 22.841-19.951 8.108-4.011 15.894-4.992 21.591-2.294 5.698 2.698 8.465 8.675 8.133 16.369-.331 7.677-3.756 16.931-10.237 25.919s-14.749 15.948-22.84 19.951c-8.109 4.011-15.894 4.993-21.592 2.295z" stroke="#BDD4FF" stroke-width="1.5"/></g><g filter="url(#filter1_f_8689_4698)"><path d="M436.435 405.445c-2.914-1.38-4.385-4.466-4.209-8.55.175-4.068 1.993-8.994 5.453-13.792s7.864-8.5 12.151-10.621c4.305-2.129 8.345-2.605 11.259-1.226 2.914 1.38 4.386 4.467 4.209 8.551-.175 4.068-1.993 8.994-5.452 13.792-3.46 4.798-7.865 8.5-12.152 10.62-4.304 2.13-8.345 2.606-11.259 1.226z" stroke="#77A7FF" stroke-width="1.5"/></g><g filter="url(#filter2_f_8689_4698)"><path d="M445.494 393.502c-.586-.277-.974-.946-.928-2.011.045-1.049.518-2.357 1.452-3.651.933-1.294 2.106-2.27 3.211-2.817 1.124-.555 2.032-.609 2.618-.332.587.278.975.946.929 2.012-.046 1.049-.519 2.356-1.452 3.65-.933 1.294-2.106 2.27-3.212 2.817-1.123.556-2.032.61-2.618.332z" stroke="#427FF0" stroke-width="1.5"/></g><g filter="url(#filter3_f_8689_4698)"><path d="M145.429 443.223c-3.216 3.971-8.639 5.612-14.949 4.904-6.302-.706-13.387-3.755-19.729-9.014-6.342-5.26-10.687-11.69-12.609-17.804-1.924-6.121-1.399-11.823 1.818-15.794 3.216-3.97 8.638-5.611 14.948-4.904 6.302.707 13.387 3.755 19.729 9.015 6.342 5.259 10.687 11.69 12.609 17.803 1.925 6.122 1.399 11.824-1.817 15.794z" stroke="#BDD4FF" stroke-width="1.5"/></g><g filter="url(#filter4_f_8689_4698)"><path d="M135.219 434.118c-1.634 2.017-4.42 2.888-7.746 2.515-3.318-.372-7.072-1.981-10.443-4.777-3.371-2.795-5.668-6.204-6.68-9.423-1.014-3.226-.717-6.161.917-8.178 1.634-2.017 4.42-2.889 7.746-2.516 3.318.372 7.072 1.981 10.443 4.777 3.371 2.796 5.668 6.204 6.68 9.423 1.014 3.226.717 6.162-.917 8.179z" stroke="#77A7FF" stroke-width="1.5"/></g><g filter="url(#filter5_f_8689_4698)"><path d="M126.827 426.769c-.31.384-.891.612-1.722.518-.822-.092-1.79-.498-2.677-1.233-.886-.735-1.47-1.616-1.721-2.414-.253-.806-.146-1.427.164-1.81.311-.384.892-.612 1.723-.519.822.093 1.79.499 2.677 1.234.886.735 1.47 1.616 1.721 2.414.253.806.146 1.427-.165 1.81z" stroke="#427FF0" stroke-width="1.5"/></g><g filter="url(#filter6_f_8689_4698)"><path d="M149.903 163.646c7.138 3.172 10.715 10.48 10.535 19.946-.18 9.449-4.115 20.918-11.805 32.143-7.691 11.225-17.639 20.022-27.469 25.183-9.848 5.171-19.432 6.63-26.57 3.459-7.137-3.171-10.715-10.479-10.534-19.946.18-9.449 4.115-20.917 11.805-32.143 7.691-11.225 17.639-20.022 27.469-25.183 9.848-5.171 19.432-6.63 26.569-3.459z" stroke="#BDD4FF" stroke-width="1.5"/></g><g filter="url(#filter7_f_8689_4698)"><path d="M136.559 181.842c3.688 1.639 5.593 5.442 5.497 10.48-.096 5.022-2.19 11.141-6.302 17.143-4.112 6.002-9.422 10.691-14.646 13.434-5.242 2.752-10.252 3.482-13.94 1.844-3.688-1.639-5.593-5.442-5.497-10.48.096-5.022 2.19-11.141 6.302-17.143 4.112-6.002 9.422-10.691 14.647-13.434 5.241-2.752 10.252-3.482 13.939-1.844z" stroke="#77A7FF" stroke-width="1.5"/></g><g filter="url(#filter8_f_8689_4698)"><path d="M125.816 196.744c.802.357 1.308 1.229 1.283 2.565-.026 1.319-.58 2.963-1.699 4.597-1.119 1.634-2.551 2.888-3.923 3.608-1.39.73-2.575.85-3.378.494-.803-.357-1.308-1.229-1.283-2.565.025-1.319.579-2.963 1.698-4.597 1.12-1.634 2.551-2.888 3.924-3.608 1.389-.73 2.575-.85 3.378-.494z" stroke="#427FF0" stroke-width="1.5"/></g><path d="M123.242 424.8l-74.4 35.4 51 37.4 23.4-72.8z" fill="url(#paint36_linear_8689_4698)"/><path d="M43.643 464.5c-7.4 9.7-1.5 26.7 13.2 37.9s32.6 12.3 40 2.6c7.4-9.7 1.5-26.7-13.2-37.9-14.7-11.1-32.6-12.3-40-2.6z" fill="url(#paint37_linear_8689_4698)"/><path d="M123.005 200.206l-35.8-66.2-41.4 45.4 77.2 20.8z" fill="url(#paint38_linear_8689_4698)"/><path d="M84.004 129.606c9 9 6.1 26.5-6.4 39-12.6 12.6-30 15.4-39 6.4s-6.1-26.5 6.4-39 30-15.4 39-6.4z" fill="url(#paint39_linear_8689_4698)"/><path d="M448.105 385.906l74.4 35.4-51 37.4-23.4-72.8z" fill="url(#paint40_linear_8689_4698)"/><path d="M527.705 425.606c7.4 9.7 1.5 26.7-13.2 37.9s-32.6 12.3-40 2.6c-7.4-9.7-1.5-26.7 13.2-37.9 14.7-11.1 32.6-12.3 40-2.6z" fill="url(#paint41_linear_8689_4698)"/></g><defs><linearGradient id="paint26_linear_8689_4698" x1="269.547" y1="378.178" x2="360.532" y2="378.178" gradientUnits="userSpaceOnUse"><stop offset=".149" stop-color="#233B67"/><stop offset="1" stop-color="#565378"/></linearGradient><linearGradient id="paint19_linear_8689_4698" x1="345.777" y1="370.987" x2="369.386" y2="370.987" gradientUnits="userSpaceOnUse"><stop stop-color="#233B67"/><stop offset=".998" stop-color="#565378"/></linearGradient><linearGradient id="paint1_linear_8689_4698" x1="272.821" y1="564.704" x2="272.821" y2="494.634" gradientUnits="userSpaceOnUse"><stop stop-color="#DDE9FF"/><stop offset=".474" stop-color="#CEDFFF"/><stop offset="1" stop-color="#BDD4FF"/></linearGradient><linearGradient id="paint2_linear_8689_4698" x1="223.083" y1="361.141" x2="226.008" y2="247.5" gradientUnits="userSpaceOnUse"><stop stop-color="#E7EFFF"/><stop offset="1" stop-color="#fff"/></linearGradient><linearGradient id="paint3_linear_8689_4698" x1="207.475" y1="419.121" x2="209.232" y2="318.264" gradientUnits="userSpaceOnUse"><stop stop-color="#E7EFFF"/><stop offset="1" stop-color="#fff"/></linearGradient><linearGradient id="paint4_linear_8689_4698" x1="232.405" y1="418.687" x2="224.73" y2="306.348" gradientUnits="userSpaceOnUse"><stop stop-color="#BDD4FF"/><stop offset="1" stop-color="#E7EFFF"/></linearGradient><linearGradient id="paint5_linear_8689_4698" x1="443.258" y1="102.544" x2="406.99" y2="79.185" gradientUnits="userSpaceOnUse"><stop stop-color="#F86E80"/><stop offset=".999" stop-color="#FFD4D8"/></linearGradient><linearGradient id="paint6_linear_8689_4698" x1="180.791" y1="73.936" x2="153.125" y2="81.089" gradientUnits="userSpaceOnUse"><stop stop-color="#F86E80"/><stop offset=".999" stop-color="#FFD4D8"/></linearGradient><linearGradient id="paint41_linear_8689_4698" x1="475.469" y1="422.077" x2="514.779" y2="458.503" gradientUnits="userSpaceOnUse"><stop stop-color="#F86E80"/><stop offset=".999" stop-color="#FFD4D8"/></linearGradient><linearGradient id="paint40_linear_8689_4698" x1="461.469" y1="446.264" x2="484.268" y2="405.383" gradientUnits="userSpaceOnUse"><stop stop-color="#F86E80"/><stop offset=".999" stop-color="#FFD4D8"/></linearGradient><linearGradient id="paint9_linear_8689_4698" x1="158.097" y1="429.526" x2="176.806" y2="469.859" gradientUnits="userSpaceOnUse"><stop stop-color="#BDD4FF"/><stop offset="1" stop-color="#E7EFFF"/></linearGradient><linearGradient id="paint10_linear_8689_4698" x1="354.766" y1="432.78" x2="371.648" y2="471.371" gradientUnits="userSpaceOnUse"><stop stop-color="#BDD4FF"/><stop offset="1" stop-color="#E7EFFF"/></linearGradient><linearGradient id="paint11_linear_8689_4698" x1="321.25" y1="328.425" x2="319.913" y2="246.23" gradientUnits="userSpaceOnUse"><stop stop-color="#4687FF"/><stop offset=".999" stop-color="#77A7FF"/></linearGradient><linearGradient id="paint12_linear_8689_4698" x1="305.746" y1="432.974" x2="326.393" y2="432.974" gradientUnits="userSpaceOnUse"><stop stop-color="#F6CFBE"/><stop offset="1" stop-color="#FFE8E1"/></linearGradient><linearGradient id="paint13_linear_8689_4698" x1="297.104" y1="456.615" x2="325.342" y2="456.615" gradientUnits="userSpaceOnUse"><stop offset=".149" stop-color="#233B67"/><stop offset="1" stop-color="#565378"/></linearGradient><linearGradient id="paint14_linear_8689_4698" x1="237.08" y1="261.235" x2="236.268" y2="244.253" gradientUnits="userSpaceOnUse"><stop stop-color="#4687FF"/><stop offset=".999" stop-color="#77A7FF"/></linearGradient><linearGradient id="paint15_linear_8689_4698" x1="310.653" y1="261.235" x2="309.855" y2="244.252" gradientUnits="userSpaceOnUse"><stop stop-color="#4687FF"/><stop offset=".999" stop-color="#77A7FF"/></linearGradient><linearGradient id="paint16_linear_8689_4698" x1="194.59" y1="345.97" x2="341.368" y2="345.97" gradientUnits="userSpaceOnUse"><stop offset=".149" stop-color="#233B67"/><stop offset="1" stop-color="#565378"/></linearGradient><linearGradient id="paint39_linear_8689_4698" x1="101.637" y1="180.881" x2="46.916" y2="142.223" gradientUnits="userSpaceOnUse"><stop stop-color="#F86E80"/><stop offset=".999" stop-color="#FFD4D8"/></linearGradient><linearGradient id="paint0_linear_8689_4698" x1="155.709" y1="758.516" x2="163.747" y2="-100.268" gradientUnits="userSpaceOnUse"><stop stop-color="#BDD4FF"/><stop offset="1" stop-color="#E7EFFF"/></linearGradient><linearGradient id="paint20_linear_8689_4698" x1="323.045" y1="256.094" x2="323.045" y2="356.833" gradientUnits="userSpaceOnUse"><stop stop-color="#BDD4FF"/><stop offset="1" stop-color="#E7EFFF"/></linearGradient><linearGradient id="paint21_linear_8689_4698" x1="270.348" y1="342.742" x2="270.348" y2="259.546" gradientUnits="userSpaceOnUse"><stop offset=".144" stop-color="#E5EAF9"/><stop offset="1" stop-color="#EBEEF5"/></linearGradient><linearGradient id="paint22_linear_8689_4698" x1="297.697" y1="366.769" x2="225.567" y2="306.244" gradientUnits="userSpaceOnUse"><stop offset=".144" stop-color="#E5EAF9"/><stop offset="1" stop-color="#DCDFEA"/></linearGradient><linearGradient id="paint23_linear_8689_4698" x1="217.917" y1="281.739" x2="322.802" y2="281.739" gradientUnits="userSpaceOnUse"><stop stop-color="#fff"/><stop offset=".465" stop-color="#EFF4FF" stop-opacity="0"/><stop offset="1" stop-color="#fff"/></linearGradient><linearGradient id="paint24_linear_8689_4698" x1="248.38" y1="340.091" x2="250.246" y2="280.048" gradientUnits="userSpaceOnUse"><stop stop-color="#E7EFFF"/><stop offset="1" stop-color="#fff"/></linearGradient><linearGradient id="paint25_linear_8689_4698" x1="276.876" y1="304.776" x2="276.876" y2="321.177" gradientUnits="userSpaceOnUse"><stop stop-color="#BDD4FF"/><stop offset="1" stop-color="#E7EFFF"/></linearGradient><linearGradient id="paint17_linear_8689_4698" x1="317.519" y1="378.543" x2="317.519" y2="362.245" gradientUnits="userSpaceOnUse"><stop stop-color="#F6CFBE"/><stop offset="1" stop-color="#FFE8E1"/></linearGradient><linearGradient id="paint27_linear_8689_4698" x1="315.957" y1="360.459" x2="328.735" y2="360.459" gradientUnits="userSpaceOnUse"><stop offset=".149" stop-color="#233B67"/><stop offset="1" stop-color="#565378"/></linearGradient><linearGradient id="paint28_linear_8689_4698" x1="178.463" y1="356.605" x2="304.432" y2="356.605" gradientUnits="userSpaceOnUse"><stop offset=".149" stop-color="#233B67"/><stop offset="1" stop-color="#565378"/></linearGradient><linearGradient id="paint29_linear_8689_4698" x1="249.835" y1="227.733" x2="266.755" y2="223.617" gradientUnits="userSpaceOnUse"><stop stop-color="#FFE8E1"/><stop offset=".838" stop-color="#F6CFBE"/></linearGradient><linearGradient id="paint30_linear_8689_4698" x1="250.854" y1="251.225" x2="186.625" y2="491.702" gradientUnits="userSpaceOnUse"><stop stop-color="#BDD4FF"/><stop offset=".23" stop-color="#B1CCFF"/><stop offset=".65" stop-color="#92B9FF"/><stop offset=".96" stop-color="#77A7FF"/></linearGradient><linearGradient id="paint31_linear_8689_4698" x1="181.251" y1="485.393" x2="188.797" y2="382.713" gradientUnits="userSpaceOnUse"><stop stop-color="#4687FF"/><stop offset=".999" stop-color="#77A7FF"/></linearGradient><linearGradient id="paint32_linear_8689_4698" x1="221.43" y1="362.739" x2="183.063" y2="488.548" gradientUnits="userSpaceOnUse"><stop stop-color="#BDD4FF"/><stop offset=".23" stop-color="#B1CCFF"/><stop offset=".65" stop-color="#92B9FF"/><stop offset=".96" stop-color="#77A7FF"/></linearGradient><linearGradient id="paint33_linear_8689_4698" x1="270.203" y1="207.999" x2="270.203" y2="176.767" gradientUnits="userSpaceOnUse"><stop stop-color="#FFE8E1"/><stop offset=".468" stop-color="#FADACD"/><stop offset=".838" stop-color="#F6CFBE"/></linearGradient><linearGradient id="paint34_linear_8689_4698" x1="256.818" y1="156.851" x2="288.798" y2="194.935" gradientUnits="userSpaceOnUse"><stop stop-color="#565378"/><stop offset="1" stop-color="#233B67"/></linearGradient><linearGradient id="paint38_linear_8689_4698" x1="77.609" y1="205.61" x2="97.072" y2="160.378" gradientUnits="userSpaceOnUse"><stop stop-color="#F86E80"/><stop offset=".999" stop-color="#FFD4D8"/></linearGradient><linearGradient id="paint36_linear_8689_4698" x1="109.879" y1="485.158" x2="87.079" y2="444.277" gradientUnits="userSpaceOnUse"><stop stop-color="#F86E80"/><stop offset=".999" stop-color="#FFD4D8"/></linearGradient><linearGradient id="paint37_linear_8689_4698" x1="95.878" y1="460.971" x2="56.569" y2="497.397" gradientUnits="userSpaceOnUse"><stop stop-color="#F86E80"/><stop offset=".999" stop-color="#FFD4D8"/></linearGradient><filter id="filter2_f_8689_4698" x="439.754" y="379.839" width="17.832" height="18.515" filterUnits="userSpaceOnUse" color-interpolation-filters="sRGB"><feFlood flood-opacity="0" result="BackgroundImageFix"/><feBlend in="SourceGraphic" in2="BackgroundImageFix" result="shape"/><feGaussianBlur stdDeviation="2" result="effect1_foregroundBlur_8689_4698"/></filter><filter id="filter4_f_8689_4698" x="105.02" y="406.901" width="36.449" height="34.57" filterUnits="userSpaceOnUse" color-interpolation-filters="sRGB"><feFlood flood-opacity="0" result="BackgroundImageFix"/><feBlend in="SourceGraphic" in2="BackgroundImageFix" result="shape"/><feGaussianBlur stdDeviation="2" result="effect1_foregroundBlur_8689_4698"/></filter><filter id="filter6_f_8689_4698" x="79.246" y="157.288" width="86.004" height="93.447" filterUnits="userSpaceOnUse" color-interpolation-filters="sRGB"><feFlood flood-opacity="0" result="BackgroundImageFix"/><feBlend in="SourceGraphic" in2="BackgroundImageFix" result="shape"/><feGaussianBlur stdDeviation="2" result="effect1_foregroundBlur_8689_4698"/></filter><filter id="filter7_f_8689_4698" x="96.863" y="176.287" width="50.004" height="54.012" filterUnits="userSpaceOnUse" color-interpolation-filters="sRGB"><feFlood flood-opacity="0" result="BackgroundImageFix"/><feBlend in="SourceGraphic" in2="BackgroundImageFix" result="shape"/><feGaussianBlur stdDeviation="2" result="effect1_foregroundBlur_8689_4698"/></filter><filter id="filter8_f_8689_4698" x="112.008" y="191.86" width="19.898" height="21.031" filterUnits="userSpaceOnUse" color-interpolation-filters="sRGB"><feFlood flood-opacity="0" result="BackgroundImageFix"/><feBlend in="SourceGraphic" in2="BackgroundImageFix" result="shape"/><feGaussianBlur stdDeviation="2" result="effect1_foregroundBlur_8689_4698"/></filter><filter id="filter0_f_8689_4698" x="412.227" y="349.284" width="72.473" height="76.946" filterUnits="userSpaceOnUse" color-interpolation-filters="sRGB"><feFlood flood-opacity="0" result="BackgroundImageFix"/><feBlend in="SourceGraphic" in2="BackgroundImageFix" result="shape"/><feGaussianBlur stdDeviation="2" result="effect1_foregroundBlur_8689_4698"/></filter><filter id="filter1_f_8689_4698" x="427.406" y="365.788" width="42.715" height="45.127" filterUnits="userSpaceOnUse" color-interpolation-filters="sRGB"><feFlood flood-opacity="0" result="BackgroundImageFix"/><feBlend in="SourceGraphic" in2="BackgroundImageFix" result="shape"/><feGaussianBlur stdDeviation="2" result="effect1_foregroundBlur_8689_4698"/></filter><filter id="filter5_f_8689_4698" x="115.82" y="416.537" width="16.059" height="15.525" filterUnits="userSpaceOnUse" color-interpolation-filters="sRGB"><feFlood flood-opacity="0" result="BackgroundImageFix"/><feBlend in="SourceGraphic" in2="BackgroundImageFix" result="shape"/><feGaussianBlur stdDeviation="2" result="effect1_foregroundBlur_8689_4698"/></filter><filter id="filter3_f_8689_4698" x="92.277" y="395.698" width="60.832" height="57.343" filterUnits="userSpaceOnUse" color-interpolation-filters="sRGB"><feFlood flood-opacity="0" result="BackgroundImageFix"/><feBlend in="SourceGraphic" in2="BackgroundImageFix" result="shape"/><feGaussianBlur stdDeviation="2" result="effect1_foregroundBlur_8689_4698"/></filter><radialGradient id="paint35_radial_8689_4698" cx="0" cy="0" r="1" gradientUnits="userSpaceOnUse" gradientTransform="rotate(89.168 172.674 113.95) scale(1033.25 1109.62)"><stop stop-color="#E7EFFF"/><stop offset="1" stop-color="#BDD4FF"/></radialGradient><radialGradient id="paint18_radial_8689_4698" cx="0" cy="0" r="1" gradientUnits="userSpaceOnUse" gradientTransform="matrix(182.87 0 0 15.4851 274.362 379.251)"><stop stop-color="#426BB7"/><stop offset="1" stop-color="#EDF3FF" stop-opacity="0"/></radialGradient><radialGradient id="paint8_radial_8689_4698" cx="0" cy="0" r="1" gradientUnits="userSpaceOnUse" gradientTransform="matrix(49.5647 0 0 10.0289 197.18 492.555)"><stop stop-color="#4873C4" stop-opacity=".9"/><stop offset=".375" stop-color="#4771C0" stop-opacity=".867"/><stop offset=".714" stop-color="#2D4A80" stop-opacity=".278"/><stop offset="1" stop-color="#233B67" stop-opacity="0"/></radialGradient><radialGradient id="paint7_radial_8689_4698" cx="0" cy="0" r="1" gradientUnits="userSpaceOnUse" gradientTransform="matrix(160.61392 .15872 -.01864 18.8625 274.238 478.001)"><stop stop-color="#4873C4" stop-opacity=".9"/><stop offset=".375" stop-color="#4771C0" stop-opacity=".867"/><stop offset=".714" stop-color="#2D4A80" stop-opacity=".278"/><stop offset="1" stop-color="#233B67" stop-opacity="0"/></radialGradient><clipPath id="clip0_8689_4698"><path fill="#fff" d="M0 0h555v555H0z"/></clipPath><clipPath id="clip1_8689_4698"><path fill="#fff" transform="translate(240.871 155.85)" d="M0 0h52.838v67.44H0z"/></clipPath></defs></svg>